<svg width="141" height="73" viewBox="0 0 141 73" fill="none" xmlns="http://www.w3.org/2000/svg">
<path d="M120.582 35.4581C120.616 35.5308 120.616 35.5792 120.616 35.6519C120.616 35.5792 120.582 35.5308 120.582 35.4581ZM70.5 22.8823C42.5197 22.8823 20.1154 28.94 20.1154 36.5C20.1154 44.0358 42.7213 50.1177 70.5 50.1177C98.2787 50.1177 120.885 44.0115 120.885 36.5C120.885 28.9885 98.2787 22.8823 70.5 22.8823Z" fill="#D3D2D2"/>
<path d="M20.8879 36.5C20.8879 43.7208 43.0908 49.5846 70.5 49.5846C97.9092 49.5846 120.112 43.745 120.112 36.5C120.112 29.2792 97.9092 23.4154 70.5 23.4154C43.0908 23.4154 20.8879 29.2792 20.8879 36.5Z" fill="url(#paint0_radial_1_6)"/>
<path d="M24.6164 36.5C24.6164 36.9846 24.7508 37.4692 25.0195 37.9538C24.9187 37.6388 24.8515 37.3238 24.8515 37.0088C24.8515 31.0238 45.3749 26.1777 70.7351 26.1777C94.0464 26.1777 113.293 30.2727 116.216 35.6035C114.267 30.0062 94.5503 25.6204 70.5 25.6204C45.1733 25.5962 24.6164 30.4908 24.6164 36.5Z" fill="url(#paint1_linear_1_6)"/>
<path d="M118.029 36.5C118.029 43.0908 96.7336 48.4458 70.5 48.4458C47.1215 48.4458 27.7067 44.2054 23.7095 38.6323C26.7662 44.4477 46.6849 48.9304 70.8359 48.9304C97.1031 48.9304 118.365 43.6239 118.365 37.1058C118.365 36.4515 118.13 35.7973 117.727 35.1673C117.929 35.5792 118.029 36.0396 118.029 36.5Z" fill="url(#paint2_linear_1_6)"/>
<path d="M79.3677 37.6631C78.2928 38.4627 78.2256 39.5046 78.931 39.965C79.1662 40.1346 79.4685 40.2073 79.7708 40.2315C79.3005 39.8196 79.099 38.9958 79.67 38.3658C79.5692 38.1719 79.5356 37.9539 79.6028 37.7358C79.6028 37.6873 79.5692 37.6389 79.5021 37.6389C79.4349 37.6146 79.4013 37.6389 79.3677 37.6631Z" fill="url(#paint3_linear_1_6)"/>
<path d="M90.3515 39.3592C90.3515 39.4804 90.4187 39.6985 90.4523 39.8681C90.5195 39.7954 90.5531 39.7227 90.6203 39.6258C90.6539 39.5531 90.6539 39.5531 90.5867 39.5288C90.4859 39.5046 90.3515 39.4319 90.3515 39.3835C90.318 39.3835 90.318 39.3835 90.3515 39.3592Z" fill="url(#paint4_linear_1_6)"/>
<path d="M91.6279 36.7423C91.9974 36.9846 92.199 37.2754 92.2326 37.5662C92.2326 37.6873 92.4005 37.7115 92.5013 37.5904C92.5349 37.5662 92.5685 37.5177 92.602 37.4692C92.5685 37.445 92.5349 37.4208 92.5013 37.3723C92.3669 37.2512 91.9974 36.9846 91.6279 36.7423Z" fill="url(#paint5_linear_1_6)"/>
<path d="M76.882 36.2577C77.1508 36.5485 77.2851 36.9362 77.2851 37.445C77.2851 37.5662 77.4195 37.5662 77.4867 37.4692C77.5203 37.4208 77.5874 37.3723 77.621 37.3238C77.4531 36.8635 77.1172 36.4273 76.882 36.2577Z" fill="url(#paint6_linear_1_6)"/>
<path d="M86.7238 38.9231C85.7162 39.7954 85.1787 40.6919 85.1787 41.5642C85.1787 41.8792 85.3467 42.2669 85.7162 42.3881C85.8505 42.4365 85.9513 42.4608 86.0856 42.485C86.0521 42.3638 86.0185 42.2427 86.0185 42.1458C86.0185 41.2492 86.388 40.3527 87.3956 39.4562C88.6049 38.39 89.8813 37.8569 90.7546 38.1477C90.721 37.9054 90.5531 37.7115 90.1836 37.5904C90.0156 37.5419 89.8477 37.5177 89.6462 37.5177C88.7728 37.5177 87.698 38.0508 86.7238 38.9231Z" fill="url(#paint7_linear_1_6)"/>
<path d="M66.7715 37.0573C65.428 37.4208 64.0844 38.0023 63.1439 38.8988C62.069 39.9165 61.8003 41.1523 62.5056 41.8792C62.6736 42.0488 62.8751 42.17 63.1103 42.2427C62.7408 41.3946 63.0095 40.2558 63.9164 39.3835C64.8569 38.4869 65.8982 38.1477 67.0739 37.76C67.2418 37.7115 67.2418 37.6388 67.2082 37.5419C67.141 37.3723 67.0067 36.9362 66.9395 36.8392C66.9731 36.9604 66.9395 37.0331 66.7715 37.0573Z" fill="url(#paint8_linear_1_6)"/>
<path d="M76.8485 39.7954C75.6056 41.1765 74.43 42.5092 73.1872 43.9146C73.12 43.9873 73.0528 44.0115 72.9521 44.0358H70.5C70.3992 44.0358 70.3656 44.0115 70.3321 43.9631C70.3992 44.1812 70.5 44.5688 70.5336 44.6658C70.5672 44.7385 70.6344 44.7627 70.7015 44.7627H73.4895C73.5903 44.7627 73.691 44.7142 73.7246 44.6415C74.8667 43.3573 76.0759 41.9762 77.218 40.6919C77.4867 41.3462 77.5874 41.6369 78.0913 41.9519C78.5615 42.2669 78.9982 42.3396 79.67 42.3396C80.2746 42.3396 80.8456 42.17 81.551 41.9519C81.8197 41.8792 82.0213 41.7823 82.2228 41.6854C82.2228 41.4431 82.2564 41.2008 82.3236 40.9827C82.3236 40.9585 82.29 40.8131 82.1221 40.8858C81.7862 41.0554 81.3831 41.225 80.8456 41.3704C80.2074 41.54 79.9051 41.6127 79.3005 41.6127C78.5615 41.6127 77.8897 41.3704 77.4195 40.8373C77.1508 40.5465 77.05 40.1104 77.0164 39.7954C77.0164 39.7712 76.9828 39.7469 76.9492 39.7469C76.9156 39.7712 76.8821 39.7712 76.8485 39.7954Z" fill="url(#paint9_linear_1_6)"/>
<path d="M98.4803 40.5223C97.271 41.5885 95.961 42.5819 94.6846 43.2846C92.7028 44.3992 90.7546 44.6658 89.7805 43.9631C89.411 43.6965 89.2095 43.3331 89.2095 42.9938C89.2095 42.8242 89.0751 42.8242 88.9744 42.8969C87.7987 43.7208 85.7833 44.6415 83.9359 43.9873C83.029 43.6481 82.5251 43.0423 82.3236 42.3638C82.4244 42.8485 82.5923 43.5512 82.8946 43.9873C83.0962 44.2781 83.5664 44.6173 83.8687 44.7142C85.5146 45.2958 87.8323 44.6415 89.3438 43.5996C89.3438 43.5754 89.3774 43.5754 89.3774 43.5754C89.4446 43.7692 89.5454 43.9873 89.5454 44.0115C89.6462 44.2538 89.8141 44.4719 89.9485 44.5931C90.9897 45.4412 93.1395 45.0535 95.4236 43.7935C96.7 43.0908 97.6405 42.3881 98.7826 41.4188C98.8162 41.3704 98.8162 41.3219 98.8162 41.225C98.749 41.0069 98.6482 40.6435 98.581 40.4496C98.5138 40.4496 98.5138 40.4981 98.4803 40.5223ZM82.29 42.3154C82.29 42.3154 82.29 42.3396 82.29 42.3154V42.3154Z" fill="url(#paint10_linear_1_6)"/>
<path d="M82.861 37.5904C82.7603 38.1235 82.3572 38.5838 81.6854 38.8262C81.1144 39.02 80.4426 38.9958 79.9723 38.6808C79.838 38.5838 79.7372 38.4627 79.6364 38.3415C79.7708 38.7292 79.8715 39.02 80.0059 39.1896C80.4426 39.6742 81.2151 39.7954 82.0549 39.4562C82.6595 39.2138 83.1969 38.705 83.1298 37.9054C83.0962 37.4935 82.9282 37.0815 82.6595 36.7423C82.861 37.0088 82.9282 37.2996 82.861 37.5904Z" fill="url(#paint11_linear_1_6)"/>
<path d="M100.093 32.5988C99.7231 33.0835 92.3333 41.1765 91.8631 42.0246C91.7287 42.2912 91.6951 42.485 91.8631 42.6304C92.031 42.7758 92.2326 42.8242 92.5013 42.8242C92.5349 42.7273 92.5685 42.6062 92.6356 42.485C93.1059 41.6369 100.025 34.0769 100.395 33.5923C100.428 33.5438 100.428 33.4954 100.395 33.4712C100.361 33.3985 100.126 32.5988 100.126 32.5262C100.126 32.5504 100.126 32.5746 100.093 32.5988Z" fill="url(#paint12_linear_1_6)"/>
<path d="M69.4587 36.3788L69.5259 36.4273C69.9626 36.9119 70.1977 37.5662 70.2313 38.2688C70.2649 38.4142 70.332 38.4142 70.4328 38.3415C70.5336 38.2688 70.6008 38.1962 70.7015 38.1477C70.5672 37.7842 70.3656 37.445 70.1641 37.13C70.0969 36.9846 69.761 36.5727 69.4587 36.3788Z" fill="url(#paint13_linear_1_6)"/>
<path d="M73.2208 37.9781C71.6421 38.8504 70.2985 40.2073 69.6267 40.8131C69.2236 41.1765 68.8541 41.6854 67.8128 42.5092C66.1669 43.7935 63.9836 44.5446 61.901 44.0115C60.759 43.745 59.9192 43.0665 59.6169 42.2427C59.5497 42.0731 59.4154 42.0489 59.3146 42.1458C58.9787 42.4608 58.2733 42.8969 57.7023 43.1877C57.6351 43.2119 57.4672 43.2846 57.3328 43.2362C57.1985 43.1877 56.7954 42.7515 56.6946 42.6304C56.6946 42.6062 56.661 42.6062 56.661 42.5819C56.7954 43.115 56.829 43.1877 57.0305 43.43C57.2656 43.6965 57.5008 43.8904 57.5344 43.9146C57.6687 43.9631 57.8031 43.9146 57.8703 43.8904C58.3069 43.7208 59.1803 43.2362 59.5833 42.8969C59.6841 42.8242 59.8185 42.8727 59.8521 42.9454C60.02 43.3089 60.2551 43.5754 60.4903 43.8904C60.759 44.2296 61.33 44.5689 62.069 44.7142C63.0095 44.9081 64.0508 44.9323 65.3944 44.5689C66.4692 44.2781 67.6113 43.6723 68.4846 42.9696C69.5259 42.1458 69.8954 41.6369 70.2985 41.2735C70.9703 40.6677 72.0451 39.6015 73.5231 38.6808C74.0269 38.3658 74.5979 38.1477 74.9674 38.2446C75.169 37.8569 75.0682 37.6389 74.8667 37.5177C74.7995 37.4935 74.6987 37.4692 74.5979 37.4692C74.1949 37.5177 73.691 37.7358 73.2208 37.9781Z" fill="url(#paint14_linear_1_6)"/>
<path d="M46.7521 36.8877C45.8451 37.2269 44.7703 37.7842 44.2328 38.5596C43.7962 39.1896 43.729 39.9408 44.3672 40.6677C44.4344 40.7162 44.4679 40.7888 44.5351 40.8373C44.3336 40.2315 44.5687 39.6015 44.871 39.1169C45.4085 38.3415 46.1474 37.9781 46.8864 37.6388C47.1887 37.4935 47.3567 37.3481 47.1551 36.9846C47.088 36.8877 47.0544 36.6938 47.0208 36.5242C47.0544 36.6696 46.9536 36.815 46.7521 36.8877Z" fill="url(#paint15_linear_1_6)"/>
<path d="M53.5036 29.1581C50.9172 29.8608 49.7751 31.3388 50.3126 32.3323C50.4133 32.5262 50.5813 32.6715 50.8164 32.7685C50.6485 31.8477 51.589 30.3696 54.0746 29.7638C57.3328 28.9885 60.9605 29.4731 63.8828 29.9335C64.2859 29.7396 64.6554 29.6185 64.9913 29.4731C65.1592 29.4004 64.9577 29.3277 64.9241 29.3277C62.6064 29.0127 60.188 28.625 57.8367 28.625C56.3587 28.625 54.9144 28.7704 53.5036 29.1581Z" fill="url(#paint16_linear_1_6)"/>
<path d="M64.3531 34.7069C63.1774 34.7554 61.3636 34.8765 60.1208 34.9977C59.8185 35.0219 59.7849 35.0704 59.7177 35.1431C57.7359 37.4935 55.6533 40.0135 53.3356 41.7096C50.85 43.5269 48.801 44.0115 46.6177 44.0115C44.0985 44.0358 41.8479 42.9938 41.2769 41.1765C41.5792 42.1942 42.4861 43.4058 43.5274 43.9388C44.6023 44.4719 45.6436 44.6658 46.8528 44.6658C49.3385 44.69 51.6226 43.9631 54.041 42.1942C56.3587 40.4981 58.3741 38.1235 60.3223 35.7731C60.3895 35.7004 60.4567 35.6519 60.7926 35.6277C62.0354 35.5065 63.1438 35.4581 64.2523 35.3854C64.5882 35.3612 64.8233 35.3369 64.9577 35.4338C65.3608 35.7246 65.7974 35.9912 66.1333 36.1123C66.3349 36.1123 66.5028 36.1365 66.6372 36.2335C66.7715 36.2092 66.8723 36.1608 66.9731 36.1123C67.1074 36.0154 67.1074 35.8942 67.1074 35.7973C67.0738 35.6035 66.9731 35.2158 66.9059 35.1188C66.9731 35.1915 66.9395 35.3127 66.8051 35.4096C66.7044 35.4823 66.57 35.555 66.402 35.555C66.2677 35.555 66.1669 35.5065 65.999 35.4581C65.6295 35.3127 65.1592 35.0704 64.8569 34.8038C64.7897 34.7312 64.7226 34.7069 64.5882 34.7069C64.4538 34.6827 64.4202 34.7069 64.3531 34.7069Z" fill="url(#paint17_linear_1_6)"/>
<path d="M53.6715 36.1123C53.4028 36.2577 52.9997 36.2335 52.8318 36.0396C52.7646 35.9669 52.731 35.8942 52.731 35.8458C52.6974 36.1608 52.8654 36.5969 52.9997 36.7423C53.1341 36.9119 53.5708 36.9846 53.9067 36.815C54.6456 36.4031 55.351 36.185 56.09 36.0639C56.2915 35.87 56.4931 35.6519 56.7282 35.4096C56.7618 35.3854 56.7618 35.3612 56.7282 35.3612C56.7282 35.3369 56.6946 35.3369 56.6274 35.3369C55.5862 35.3612 54.6121 35.6035 53.6715 36.1123Z" fill="url(#paint18_linear_1_6)"/>
<path d="M85.1115 28.6492C85.1115 28.6735 85.1457 28.6735 85.1457 28.6977C85.1457 28.6735 85.1457 28.6492 85.1115 28.6492Z" fill="url(#paint19_linear_1_6)"/>
<path d="M85.2459 28.9885C85.2123 29.4973 84.6413 30.0062 83.2641 30.5392C81.6854 31.1692 80.0731 31.3388 78.36 31.3631C74.2285 31.3873 70.3656 30.2242 66.402 29.5942C66.402 29.7154 66.4356 29.8608 66.3013 29.9577C64.0844 31.145 62.1026 32.3323 60.759 34.0042C60.7254 34.0527 60.7254 34.0769 60.8261 34.0769C61.1956 34.0527 61.5315 34.0527 61.8674 34.0285C63.0767 32.6473 64.3867 31.8719 66.3685 30.8058C66.5028 30.7331 66.6708 30.6604 66.6036 30.3696C70.6008 30.9996 73.6238 32.0658 78.7967 32.09C80.3418 32.09 82.4915 31.7265 83.6672 31.2177C85.0108 30.6362 85.3802 30.2 85.4138 29.7638C85.4138 29.6185 85.3802 29.4004 85.3467 29.3035C85.3131 29.1581 85.2795 28.9642 85.2123 28.8188C85.2459 28.8431 85.2459 28.9158 85.2459 28.9885Z" fill="url(#paint20_linear_1_6)"/>
<path d="M65.999 32.5019C65.9654 32.5262 65.8982 32.5746 65.831 32.5988C65.428 32.8896 65.3272 33.2773 65.3608 33.5681C65.3944 33.6892 65.4615 33.7135 65.5287 33.6892C65.5959 33.6892 65.6967 33.665 65.7638 33.6408C65.7974 33.4712 65.8982 33.3258 66.0997 33.1804C66.2677 33.0835 66.4692 33.035 66.6372 33.0592C66.8051 32.8412 66.8387 32.5746 66.6372 32.4535C66.57 32.405 66.4692 32.3808 66.3349 32.3808C66.2677 32.405 66.1333 32.4292 65.999 32.5019Z" fill="url(#paint21_linear_1_6)"/>
<path d="M67.5777 33.5196C67.2082 34.0527 66.57 34.3192 65.9654 34.4646C65.9654 34.4646 65.831 34.4888 65.8646 34.5615C65.8646 34.6585 66.3013 34.8523 66.57 34.9735C66.6036 34.9735 66.6708 34.9492 66.6708 34.9492C66.9731 34.8523 67.4769 34.6342 67.7792 34.1738C67.9808 33.8831 68.0815 33.6408 67.9808 33.1077C67.9136 32.7442 67.8128 32.405 67.6785 32.2596C67.9808 32.6473 67.88 33.1319 67.5777 33.5196Z" fill="url(#paint22_linear_1_6)"/>
<path d="M56.5603 31.0723C56.6274 31.1935 56.6274 31.4115 56.4931 31.6538C55.3846 33.5196 53.302 34.9735 50.7492 35.0462C49.2041 35.0704 48.062 34.5131 47.5246 33.6892C47.9277 34.3192 48.7338 34.8765 49.4392 35.1915C49.9767 35.4338 50.6821 35.5792 51.4546 35.555C54.1082 35.4823 56.1236 33.9073 56.7954 32.5746C56.9633 32.2112 56.829 31.8235 56.7618 31.5812C56.6946 31.46 56.661 31.2419 56.5603 31.0723Z" fill="url(#paint23_linear_1_6)"/>
<path d="M120.582 35.4581C120.616 35.5308 120.616 35.5792 120.616 35.6519C120.616 35.5792 120.582 35.5308 120.582 35.4581ZM20.4513 36.6696C20.4513 35.0704 21.4254 33.4954 23.4744 31.9931C30.6962 26.735 49.5736 23.1973 70.3992 23.1246C98.01 23.0519 120.482 28.9885 120.549 36.3546C120.549 37.9538 119.541 39.5046 117.492 41.0069C110.27 46.265 91.4264 49.8269 70.6008 49.8754C42.99 49.9723 20.5185 44.0358 20.4513 36.6696ZM70.5 22.8823C42.5197 22.8823 20.1154 28.94 20.1154 36.5C20.1154 44.0358 42.7213 50.1177 70.5 50.1177C98.2787 50.1177 120.885 44.0115 120.885 36.5C120.885 28.9885 98.2787 22.8823 70.5 22.8823Z" fill="#4F4C4D"/>
<path d="M20.2833 36.5C20.2833 36.8635 20.3505 37.2027 20.4513 37.5662C20.3841 37.2754 20.3169 36.9604 20.3169 36.6696C20.3169 35.0462 21.3246 33.4227 23.3736 31.9204C30.629 26.6381 49.54 23.0762 70.3992 23.0277C73.2879 23.0277 76.1431 23.0762 78.8974 23.1973C76.1767 23.0762 73.3551 23.0035 70.5 23.0035C42.6541 23.0035 20.2833 29.0127 20.2833 36.5Z" fill="url(#paint24_linear_1_6)"/>
<path d="M120.683 36.3546C120.683 37.9781 119.642 39.5773 117.559 41.0796C110.337 46.3377 91.4264 49.9238 70.5672 49.9965C67.6113 49.9965 64.7226 49.9481 61.901 49.8269C64.689 49.9481 67.5441 50.0208 70.4664 50.0208C98.178 50.0208 120.683 43.9146 120.683 36.5C120.683 36.2092 120.649 35.9427 120.582 35.6519C120.683 35.8942 120.683 36.1365 120.683 36.3546Z" fill="url(#paint25_linear_1_6)"/>
<path d="M22.9369 36.5C22.9369 43.0908 44.2328 48.4458 70.4664 48.4458C96.7336 48.4458 117.996 43.0908 117.996 36.5C118.029 29.9092 96.7672 24.5785 70.5 24.5785C44.2328 24.5785 22.9369 29.9092 22.9369 36.5ZM24.6164 36.5C24.6164 30.4665 45.1397 25.5962 70.5 25.5962C95.8267 25.5962 116.384 30.4665 116.384 36.5C116.384 42.5335 95.8603 47.4038 70.5 47.4038C45.1733 47.4038 24.6164 42.5335 24.6164 36.5Z" fill="url(#paint26_linear_1_6)"/>
<path d="M97.4054 32.4535C97.2039 32.4535 97.1367 32.4777 97.0359 32.5988C96.7336 33.0108 93.1731 36.8392 92.5349 37.5904C92.4341 37.7115 92.2998 37.6873 92.2662 37.5662C92.199 37.13 91.6615 36.6212 90.8218 36.3788C90.1836 36.185 89.5454 36.1608 88.9072 36.2092C87.7316 36.3304 86.6903 36.7665 85.7833 37.2754C84.4062 38.0265 83.1969 39.02 81.6854 39.7469C80.8457 40.1346 79.7036 40.4981 78.931 39.965C78.2257 39.5046 78.3264 38.4627 79.3677 37.6631C79.4685 37.5904 79.6028 37.6388 79.6028 37.7358C79.5021 38.0992 79.6364 38.4627 80.0059 38.705C80.4762 38.9958 81.148 39.0442 81.719 38.8504C82.3908 38.6081 82.7939 38.1477 82.8946 37.6146C83.0626 36.7908 82.1892 36.0881 81.1144 36.0154C80.241 35.9669 79.3677 36.185 78.5615 36.6938C78.1585 36.9362 77.9233 37.13 77.5539 37.4935C77.4531 37.5904 77.3187 37.5904 77.3523 37.4692C77.3859 36.4273 76.7813 35.8458 75.6056 35.8215C74.6651 35.7973 73.691 36.1608 72.9185 36.6212C72.0787 37.1058 71.3398 37.76 70.5336 38.3658C70.4328 38.4385 70.3321 38.4385 70.3321 38.2931C70.2985 37.5904 70.0633 36.9362 69.6267 36.4515C69.4587 36.2819 69.1228 36.2092 68.8541 36.3062C68.7198 36.3546 68.2831 36.5 67.9472 36.6938C67.7792 36.7908 67.7121 36.9362 67.7792 37.1058C68.2159 38.1477 68.1151 39.3108 67.5441 40.3042C67.0067 41.225 65.9654 42.0246 64.7562 42.3154C63.95 42.5092 63.1103 42.4123 62.6064 41.9035C61.901 41.2008 62.1698 39.965 63.2446 38.9231C64.1851 38.0265 65.5287 37.445 66.8723 37.0815C67.0403 37.0331 67.0739 36.9604 67.0067 36.8635C66.9395 36.6938 66.8051 36.4758 66.7715 36.3788C66.6372 36.1365 66.3013 36.1123 65.8646 36.1365C64.8905 36.2092 64.0172 36.4515 63.1103 36.7908C60.8262 37.6631 59.6841 39.3835 59.1803 40.3042C58.9451 40.7404 58.7436 41.0069 58.4749 41.2492C58.1054 41.5885 57.6687 41.8792 56.829 42.3881C56.7618 42.4365 56.6946 42.5335 56.7618 42.6304C56.8626 42.7515 57.2657 43.1877 57.4 43.2362C57.5344 43.2846 57.7023 43.2119 57.7695 43.1877C58.3405 42.8969 59.0459 42.4608 59.3818 42.1458C59.4826 42.0488 59.6169 42.0973 59.6841 42.2427C59.9864 43.0665 60.8262 43.7208 61.9682 44.0115C64.0508 44.5204 66.2341 43.7935 67.88 42.5092C68.9213 41.6854 69.2908 41.1765 69.6939 40.8131C70.3657 40.2073 71.7092 38.8504 73.288 37.9781C73.859 37.6631 74.5644 37.4208 74.9003 37.5662C75.169 37.6873 75.2698 38.0023 74.8331 38.5838C73.2208 40.7162 70.8359 43.2362 70.3992 43.8419C70.3321 43.9388 70.3992 44.0358 70.5336 44.0358H72.9856C73.12 44.0358 73.1872 43.9873 73.2208 43.9146C74.4636 42.5092 75.6392 41.1765 76.8821 39.7954C76.9492 39.7227 77.0164 39.7712 77.0164 39.8196C77.05 40.1346 77.1508 40.5708 77.4195 40.8615C77.8898 41.3946 78.5615 41.6127 79.3005 41.6369C79.9051 41.6369 80.2074 41.5885 80.8457 41.3946C81.3831 41.2492 81.7862 41.0796 82.1221 40.91C82.3236 40.8131 82.3572 40.9827 82.3236 41.0069C82.0213 42.1215 82.3908 43.4542 83.9359 43.9873C85.7833 44.6415 87.7987 43.7208 88.9744 42.8969C89.0751 42.8242 89.2095 42.8242 89.2095 42.9938C89.2431 43.3088 89.4446 43.6965 89.7805 43.9631C90.7546 44.6658 92.7364 44.3992 94.6846 43.2846C95.961 42.5819 97.271 41.5885 98.4803 40.5223C98.5139 40.4738 98.5474 40.4254 98.4803 40.3527C98.3123 40.2073 98.0436 40.0619 97.8421 39.9408C97.7749 39.8923 97.6405 39.9165 97.5733 39.9408C96.3305 40.7888 95.2556 41.7338 93.6433 42.5335C93.1059 42.8 92.2326 43.0181 91.8631 42.6546C91.7287 42.5092 91.7287 42.3154 91.8631 42.0488C92.3333 41.2008 99.7231 33.1077 100.093 32.6231C100.16 32.5504 100.093 32.4777 99.9582 32.4777C99.1857 32.4535 98.178 32.4535 97.4054 32.4535ZM85.7162 42.4123C85.3467 42.2669 85.1787 41.8792 85.1787 41.5885C85.2123 40.7162 85.7498 39.8196 86.7239 38.9473C87.9331 37.8812 89.2767 37.3238 90.15 37.6146C91.0569 37.9296 90.7546 38.6808 90.3516 39.2865C90.318 39.335 90.318 39.3835 90.3516 39.4077C90.3516 39.4804 90.4859 39.5288 90.5867 39.5531C90.6203 39.5531 90.6539 39.5773 90.6203 39.65C90.318 40.1346 90.0156 40.4254 89.6126 40.8373C89.2431 41.225 88.84 41.54 88.3362 41.8308C87.7651 42.17 87.0262 42.5335 86.3208 42.5335C86.1192 42.5335 85.8841 42.485 85.7162 42.4123Z" fill="url(#paint27_linear_1_6)"/>
<path d="M58.1726 27.5346C57.4672 27.5346 56.7618 27.5588 56.0564 27.6073C51.5218 27.8738 47.2223 29.7154 47.1887 32.5262C47.1887 33.9558 48.5995 35.0946 50.7492 35.0462C53.3021 34.9735 55.3846 33.5196 56.4931 31.6538C56.8962 30.9512 56.1236 30.6604 55.7877 31.0723C55.1495 31.7992 54.209 32.3565 53.2349 32.72C52.0256 33.1319 50.7492 33.035 50.3797 32.3323C49.8423 31.3388 50.9844 29.8608 53.5708 29.1581C57.2992 28.1646 61.2292 28.8188 64.9913 29.3277C65.0585 29.3277 65.26 29.4004 65.0585 29.4731C64.3867 29.7396 63.7149 29.9577 62.6736 30.5877C61.9346 31.0481 60.9605 31.6538 60.2215 32.3081C59.4826 32.9623 58.9451 33.5438 58.2397 34.1981C58.139 34.295 58.0382 34.295 58.0382 34.295C56.3251 34.5131 54.6792 34.6342 53.1341 35.4096C52.8318 35.555 52.6974 35.8458 52.8654 36.0638C53.0333 36.2577 53.4364 36.2819 53.7051 36.1365C54.6456 35.6277 55.6197 35.3854 56.7618 35.3612C56.7954 35.3612 56.829 35.3612 56.8626 35.3854V35.4338C55.1831 37.1058 54.78 37.4935 53.5036 38.5354C52.8654 39.0685 52.2272 39.5288 51.5218 39.9892C48.6667 41.9035 45.5764 41.8792 44.468 40.6677C43.7962 39.9408 43.8969 39.1896 44.3336 38.5596C44.871 37.7842 45.9459 37.2269 46.8528 36.8877C47.1887 36.7665 47.2895 36.4515 46.9536 36.185C46.7521 35.9912 46.2146 35.9669 45.8451 36.0154C44.6695 36.1608 43.2923 36.815 42.4526 37.5904C41.5456 38.4627 41.0754 39.5046 41.2097 40.6677C41.4785 42.8 43.8969 44.0115 46.6513 44.0115C48.8346 43.9873 50.9172 43.5269 53.3692 41.7096C55.6869 40.0135 57.8031 37.4935 59.7513 35.1431C59.8185 35.0704 59.8521 35.0219 60.1544 34.9977C61.3972 34.8765 63.211 34.7554 64.3867 34.7069C64.6554 34.7069 64.689 34.7069 64.7897 34.8038C65.0921 35.0704 65.5623 35.3127 65.9318 35.4581C66.0997 35.5308 66.2005 35.555 66.3349 35.555C66.5028 35.555 66.6372 35.4823 66.738 35.4096C66.8723 35.3127 66.9059 35.1915 66.8387 35.0946C66.7715 34.9977 65.9654 34.6827 65.9318 34.5615C65.8982 34.4888 66.0326 34.4646 66.0326 34.4646C66.6372 34.3192 67.2418 34.0527 67.6449 33.5196C68.0144 33.0108 68.0815 32.3081 67.4097 31.9446C66.8051 31.6054 65.8982 31.6538 65.1928 32.1385C64.4874 32.5988 64.2523 33.2531 64.3531 33.8346C64.3531 33.9315 64.3531 33.98 64.1851 33.98C63.1103 34.0527 62.069 34.0527 60.8933 34.1012C60.8262 34.1012 60.7926 34.0769 60.8262 34.0285C62.1697 32.3565 64.1515 31.1692 66.3685 29.9819C66.5028 29.9092 66.4692 29.7638 66.4692 29.6185C70.4664 30.2485 74.2957 31.4115 78.4272 31.3873C80.1403 31.3873 81.7862 31.1935 83.3313 30.5635C84.7085 30.0304 85.2795 29.5215 85.3131 29.0127C85.3467 28.6492 85.0108 28.4312 84.5069 28.5038C80.3418 29.2065 76.3446 29.1823 72.1795 28.8188C67.4097 28.3827 62.8751 27.5346 58.1726 27.5346ZM65.3608 33.5681C65.2936 33.2531 65.428 32.8169 65.9318 32.5262C66.1669 32.3808 66.5028 32.3323 66.6708 32.4535C66.9059 32.5988 66.7715 32.9381 66.57 33.1562C66.3349 33.4227 65.8982 33.6408 65.5287 33.6892H65.4951C65.4615 33.7135 65.3944 33.6892 65.3608 33.5681Z" fill="url(#paint28_linear_1_6)"/>
<rect x="2.5" y="2.5" width="136" height="68" stroke="#4CA9E3" stroke-width="5"/>
<defs>
<radialGradient id="paint0_radial_1_6" cx="0" cy="0" r="1" gradientUnits="userSpaceOnUse" gradientTransform="translate(70.0633 173.26) scale(217.546 153.025)">
<stop stop-color="#00050D"/>
<stop offset="0.7" stop-color="#051125"/>
<stop offset="0.904" stop-color="#173E7E"/>
<stop offset="0.955" stop-color="#4CA9E3"/>
<stop offset="1" stop-color="#4CA9E3"/>
</radialGradient>
<linearGradient id="paint1_linear_1_6" x1="70.413" y1="50.4341" x2="70.413" y2="22.7335" gradientUnits="userSpaceOnUse">
<stop stop-color="#08142E"/>
<stop offset="0.809" stop-color="#17326E"/>
<stop offset="1" stop-color="#0D69A9"/>
</linearGradient>
<linearGradient id="paint2_linear_1_6" x1="71.0194" y1="50.4483" x2="71.0194" y2="22.7451" gradientUnits="userSpaceOnUse">
<stop stop-color="#08142E"/>
<stop offset="0.809" stop-color="#17326E"/>
<stop offset="1" stop-color="#0D69A9"/>
</linearGradient>
<linearGradient id="paint3_linear_1_6" x1="79.1008" y1="45.6757" x2="79.1008" y2="26.4826" gradientUnits="userSpaceOnUse">
<stop stop-color="#08142E"/>
<stop offset="0.809" stop-color="#17326E"/>
<stop offset="1" stop-color="#0D69A9"/>
</linearGradient>
<linearGradient id="paint4_linear_1_6" x1="90.4692" y1="45.7542" x2="90.4692" y2="26.3052" gradientUnits="userSpaceOnUse">
<stop stop-color="#08142E"/>
<stop offset="0.809" stop-color="#17326E"/>
<stop offset="1" stop-color="#0D69A9"/>
</linearGradient>
<linearGradient id="paint5_linear_1_6" x1="29039.2" y1="44.9924" x2="29039.2" y2="27.1761" gradientUnits="userSpaceOnUse">
<stop stop-color="#08142E"/>
<stop offset="0.809" stop-color="#17326E"/>
<stop offset="1" stop-color="#0D69A9"/>
</linearGradient>
<linearGradient id="paint6_linear_1_6" x1="77.2709" y1="45.251" x2="77.2709" y2="26.8347" gradientUnits="userSpaceOnUse">
<stop stop-color="#08142E"/>
<stop offset="0.809" stop-color="#17326E"/>
<stop offset="1" stop-color="#0D69A9"/>
</linearGradient>
<linearGradient id="paint7_linear_1_6" x1="87.9405" y1="45.7515" x2="87.9405" y2="26.3338" gradientUnits="userSpaceOnUse">
<stop stop-color="#08142E"/>
<stop offset="0.809" stop-color="#17326E"/>
<stop offset="1" stop-color="#0D69A9"/>
</linearGradient>
<linearGradient id="paint8_linear_1_6" x1="64.6537" y1="45.7331" x2="64.6537" y2="26.3195" gradientUnits="userSpaceOnUse">
<stop stop-color="#08142E"/>
<stop offset="0.809" stop-color="#17326E"/>
<stop offset="1" stop-color="#0D69A9"/>
</linearGradient>
<linearGradient id="paint9_linear_1_6" x1="31447.3" y1="45.73" x2="31447.3" y2="26.4492" gradientUnits="userSpaceOnUse">
<stop stop-color="#08142E"/>
<stop offset="0.809" stop-color="#17326E"/>
<stop offset="1" stop-color="#0D69A9"/>
</linearGradient>
<linearGradient id="paint10_linear_1_6" x1="90.5269" y1="45.753" x2="90.5269" y2="26.3309" gradientUnits="userSpaceOnUse">
<stop stop-color="#08142E"/>
<stop offset="0.809" stop-color="#17326E"/>
<stop offset="1" stop-color="#0D69A9"/>
</linearGradient>
<linearGradient id="paint11_linear_1_6" x1="81.4076" y1="45.7583" x2="81.4076" y2="26.3238" gradientUnits="userSpaceOnUse">
<stop stop-color="#08142E"/>
<stop offset="0.809" stop-color="#17326E"/>
<stop offset="1" stop-color="#0D69A9"/>
</linearGradient>
<linearGradient id="paint12_linear_1_6" x1="96.1" y1="45.7353" x2="96.1" y2="26.3179" gradientUnits="userSpaceOnUse">
<stop stop-color="#08142E"/>
<stop offset="0.809" stop-color="#17326E"/>
<stop offset="1" stop-color="#0D69A9"/>
</linearGradient>
<linearGradient id="paint13_linear_1_6" x1="70.0707" y1="45.5375" x2="70.0707" y2="26.5683" gradientUnits="userSpaceOnUse">
<stop stop-color="#08142E"/>
<stop offset="0.809" stop-color="#17326E"/>
<stop offset="1" stop-color="#0D69A9"/>
</linearGradient>
<linearGradient id="paint14_linear_1_6" x1="65.8907" y1="45.7446" x2="65.8907" y2="26.4578" gradientUnits="userSpaceOnUse">
<stop stop-color="#08142E"/>
<stop offset="0.809" stop-color="#17326E"/>
<stop offset="1" stop-color="#0D69A9"/>
</linearGradient>
<linearGradient id="paint15_linear_1_6" x1="45.5892" y1="45.7303" x2="45.5892" y2="26.3138" gradientUnits="userSpaceOnUse">
<stop stop-color="#08142E"/>
<stop offset="0.809" stop-color="#17326E"/>
<stop offset="1" stop-color="#0D69A9"/>
</linearGradient>
<linearGradient id="paint16_linear_1_6" x1="57.623" y1="45.7532" x2="57.623" y2="26.3409" gradientUnits="userSpaceOnUse">
<stop stop-color="#08142E"/>
<stop offset="0.809" stop-color="#17326E"/>
<stop offset="1" stop-color="#0D69A9"/>
</linearGradient>
<linearGradient id="paint17_linear_1_6" x1="54.133" y1="45.739" x2="54.133" y2="26.3218" gradientUnits="userSpaceOnUse">
<stop stop-color="#08142E"/>
<stop offset="0.809" stop-color="#17326E"/>
<stop offset="1" stop-color="#0D69A9"/>
</linearGradient>
<linearGradient id="paint18_linear_1_6" x1="54.7667" y1="45.751" x2="54.7667" y2="26.3241" gradientUnits="userSpaceOnUse">
<stop stop-color="#08142E"/>
<stop offset="0.809" stop-color="#17326E"/>
<stop offset="1" stop-color="#0D69A9"/>
</linearGradient>
<linearGradient id="paint19_linear_1_6" x1="85.1284" y1="45.3921" x2="85.1284" y2="26.3877" gradientUnits="userSpaceOnUse">
<stop stop-color="#08142E"/>
<stop offset="0.809" stop-color="#17326E"/>
<stop offset="1" stop-color="#0D69A9"/>
</linearGradient>
<linearGradient id="paint20_linear_1_6" x1="73.0883" y1="45.7423" x2="73.0883" y2="26.3273" gradientUnits="userSpaceOnUse">
<stop stop-color="#08142E"/>
<stop offset="0.809" stop-color="#17326E"/>
<stop offset="1" stop-color="#0D69A9"/>
</linearGradient>
<linearGradient id="paint21_linear_1_6" x1="66.1034" y1="45.0852" x2="66.1034" y2="26.7424" gradientUnits="userSpaceOnUse">
<stop stop-color="#08142E"/>
<stop offset="0.809" stop-color="#17326E"/>
<stop offset="1" stop-color="#0D69A9"/>
</linearGradient>
<linearGradient id="paint22_linear_1_6" x1="66.9627" y1="45.7429" x2="66.9627" y2="26.3258" gradientUnits="userSpaceOnUse">
<stop stop-color="#08142E"/>
<stop offset="0.809" stop-color="#17326E"/>
<stop offset="1" stop-color="#0D69A9"/>
</linearGradient>
<linearGradient id="paint23_linear_1_6" x1="52.1906" y1="45.7477" x2="52.1906" y2="26.3299" gradientUnits="userSpaceOnUse">
<stop stop-color="#08142E"/>
<stop offset="0.809" stop-color="#17326E"/>
<stop offset="1" stop-color="#0D69A9"/>
</linearGradient>
<linearGradient id="paint24_linear_1_6" x1="59.4251" y1="56.6038" x2="53.166" y2="24.2223" gradientUnits="userSpaceOnUse">
<stop stop-color="#B2B1B1"/>
<stop offset="0.35" stop-color="#DEDDDE"/>
<stop offset="0.65" stop-color="#DEDDDE"/>
<stop offset="1" stop-color="#B2B1B1"/>
</linearGradient>
<linearGradient id="paint25_linear_1_6" x1="90.0555" y1="39.5032" x2="83.8255" y2="7.27182" gradientUnits="userSpaceOnUse">
<stop stop-color="#B2B1B1"/>
<stop offset="0.35" stop-color="#DEDDDE"/>
<stop offset="0.65" stop-color="#DEDDDE"/>
<stop offset="1" stop-color="#B2B1B1"/>
</linearGradient>
<linearGradient id="paint26_linear_1_6" x1="70.504" y1="22.5471" x2="70.504" y2="50.3906" gradientUnits="userSpaceOnUse">
<stop stop-color="white"/>
<stop offset="0.552" stop-color="white"/>
<stop offset="0.691" stop-color="#FAFAFA"/>
<stop offset="0.8" stop-color="#D3D2D2"/>
<stop offset="1" stop-color="#BDBCBC"/>
</linearGradient>
<linearGradient id="paint27_linear_1_6" x1="78.4007" y1="31.4623" x2="78.4007" y2="45.271" gradientUnits="userSpaceOnUse">
<stop stop-color="white"/>
<stop offset="0.552" stop-color="white"/>
<stop offset="0.691" stop-color="#EFEEEE"/>
<stop offset="0.8" stop-color="#E9E9E9"/>
<stop offset="1" stop-color="#D3D2D2"/>
</linearGradient>
<linearGradient id="paint28_linear_1_6" x1="-32184.1" y1="26.1961" x2="-32184.1" y2="45.3512" gradientUnits="userSpaceOnUse">
<stop stop-color="white"/>
<stop offset="0.552" stop-color="white"/>
<stop offset="0.691" stop-color="#EFEEEE"/>
<stop offset="0.8" stop-color="#E9E9E9"/>
<stop offset="1" stop-color="#D3D2D2"/>
</linearGradient>
</defs>
</svg>
